# AST/ASF file generated using VICON BodyLanguage
# -----------------------------------------------
:version 1.10
:name VICON
:units
  mass 1.0
  length 0.45
  angle deg
:documentation
   .ast/.asf automatically generated from VICON data using
   VICON BodyBuilder and BodyLanguage model FoxedUp or BRILLIANT.MOD
:root
   order TX TY TZ RX RY RZ
   axis XYZ
   position 0 0 0  
   orientation 0 0 0 
:bonedata
  begin
     id 1 
     name lhipjoint
     direction 0.57768 -0.667037 0.470475 
     length 2.36008 
     axis 0 0 0  XYZ
  end
  begin
     id 2 
     name lfemur
     direction 0.34202 -0.939693 0  
     length 6.97235  
     axis 0 0 20  XYZ
    dof rx ry rz
    limits (-160.0 20.0)
           (-70.0 70.0)
           (-60.0 70.0)
  end
  begin
     id 3 
     name ltibia
     direction 0.34202 -0.939693 0   
     length 6.93428   
     axis 0 0 20   XYZ
    dof rx
    limits (-10.0 170.0)
  end
  begin
     id 4 
     name lfoot
     direction 0.133018 -0.365463 0.921272   
     length 2.18603   
     axis -90 7.62852e-016 20   XYZ
    dof rx rz
    limits (-45.0 90.0)
           (-70.0 20.0)
  end
  begin
     id 5 
     name ltoes
     direction 1.53519e-011 -4.22055e-011 1   
     length 1.07924   
     axis -90 7.62852e-016 20   XYZ
    dof rx
    limits (-90.0 20.0)
  end
  begin
     id 6 
     name rhipjoint
     direction -0.577712 -0.667019 0.470462   
     length 2.36015  
     axis 0 0 0  XYZ 
  end
  begin
     id 7 
     name rfemur
     direction -0.34202 -0.939693 0   
     length 6.71195   
     axis 0 0 -20   XYZ
    dof rx ry rz
    limits (-160.0 20.0)
           (-70.0 70.0)
           (-70.0 60.0)
  end
  begin
     id 8 
     name rtibia
     direction -0.34202 -0.939693 0   
     length 7.04592   
     axis 0 0 -20   XYZ
    dof rx
    limits (-10.0 170.0)
 end
 begin
     id 9 
     name rfoot
     direction -0.113796 -0.312651 0.943027   
     length 2.03846  
     axis -90 -7.62852e-016 -20   XYZ
    dof rx rz
    limits (-45.0 90.0)
           (-20.0 70.0)
  end
  begin
     id 10 
     name rtoes
     direction -1.53586e-011 -4.218e-011 1   
     length 1.01562   
     axis -90 -7.62852e-016 -20   XYZ
    dof rx
    limits (-90.0 20.0)
  end
  begin
     id 11 
     name lowerback
     direction -0.0417299 0.991937 -0.119667   
     length 2.05257   
     axis 0 0 0   XYZ
    dof rx ry rz
    limits (-20.0 45.0)
           (-30.0 30.0)
           (-30.0 30.0)
  end
  begin
     id 12 
     name upperback
     direction -0.00017666 0.999999 0.00105178   
     length 2.05693   
     axis 0 0 0   XYZ
    dof rx ry rz
    limits (-20.0 45.0)
           (-30.0 30.0)
           (-30.0 30.0)
  end
  begin
     id 13 
     name thorax
     direction 0.0185169 0.998203 0.0569866   
     length 2.0932   
     axis 0 0 0   XYZ
    dof rx ry rz
    limits (-20.0 45.0)
           (-30.0 30.0)
           (-30.0 30.0)
  end
  begin
     id 14 
     name lowerneck
     direction -0.0212406 0.982645 0.184277   
     length 1.72509   
     axis 0 0 0   XYZ
    dof rx ry rz
    limits (-20.0 45.0)
           (-30.0 30.0)
           (-30.0 30.0)
  end
  begin
     id 15 
     name upperneck
     direction 0.00528579 0.965323 -0.261004   
     length 1.76294   
     axis 0 0 0   XYZ
    dof rx ry rz
    limits (-20.0 45.0)
           (-30.0 30.0)
           (-30.0 30.0)
  end
  begin
     id 16
     name head
     direction 0.00695421 0.994078 -0.108445  
     length 1.78678  
     axis 0 0 0   XYZ
    dof rx ry rz
    limits (-20.0 45.0)
           (-30.0 30.0)
           (-30.0 30.0)
  end
  begin
     id 17 
     name lclavicle
     direction 0.97277 0.211305 -0.095232  
     length 3.84823  
     axis 0 0 0   XYZ
    dof ry rz
    limits (-20.0 10.0)
           (0.0 20.0)
  end
  begin
     id 18 
     name lhumerus
     direction 1 -4.48957e-011 -1.98313e-027   
     length 4.97185   
     axis 180 -30 -90   XYZ
    dof rx ry rz
    limits (-60.0 90.0)
           (-90.0 90.0)
           (-90.0 90.0)
  end
  begin
     id 19
     name lradius
     direction 1 -4.4898e-011 7.31063e-027   
     length 3.35811   
     axis 180 -30 -90   XYZ
    dof rx
    limits (-10.0 170.0)
  end
  begin
     id 20
     name lwrist
     direction 1 -4.48938e-011 9.95048e-027   
     length 1.67905   
     axis -8.75986e-015 90 90   XYZ
    dof ry
    limits (-180.0 0.0)
 end
  begin
     id 21 
     name lhand
     direction 1 -4.4901e-011 1.9901e-026   
     length 0.622776   
     axis -1.26985e-014 90 90   XYZ
    dof rx rz
    limits (-90.0 90.0)
           (-45.0 45.0)
  end
  begin
     id 22 
     name lfingers
     direction 1 -4.48961e-011 3.98019e-026   
     length 0.502098   
     axis -2.5397e-014 90 90   XYZ
    dof rx
    limits (0.0 90.0)
  end
  begin
     id 23
     name lthumb
     direction 0.707107 -6.34933e-011 0.707107   
     length 0.720915   
     axis -90 45 2.85299e-015   XYZ
    dof rx rz
    limits (-45.0 45.0)
           (-45.0 45.0)
  end
  begin
     id 24 
     name rclavicle
     direction -0.990867 0.133739 -0.0172226   
     length 3.78845  
     axis 0 0 0   XYZ 
    dof ry rz
    limits (-10.0 20.0)
           (-20.0 0.0)
  end
  begin
     id 25 
     name rhumerus
     direction -1 -4.48972e-011 -1.99267e-027  
     length 4.96493   
     axis 180 30 90   XYZ
    dof rx ry rz
    limits (-90.0 60.0)
           (-90.0 90.0)
           (-90.0 90.0)
  end
  begin
     id 26 
     name rradius
     direction -1 -4.48969e-011 8.96093e-027   
     length 3.34929   
     axis 180 30 90   XYZ
    dof rx
    limits (-10.0 170.0)
  end
  begin
     id 27 
     name rwrist
     direction -1 -4.48953e-011 9.95048e-027   
     length 1.67464   
     axis -8.75986e-015 -90 -90   XYZ
    dof ry
    limits (-180.0 0.0)
  end
  begin
     id 28
     name rhand
     direction -1 -4.49001e-011 1.9901e-026   
     length 0.638041   
     axis -1.26985e-014 -90 -90   XYZ
    dof rx rz
    limits (-90.0 90.0)
           (-45.0 45.0)
  end
  begin
     id 29
     name rfingers
     direction -1 -4.48967e-011 3.98019e-026   
     length 0.514405   
     axis -2.5397e-014 -90 -90   XYZ
    dof rx
    limits (0.0 90.0)
  end
  begin
     id 30
     name rthumb
     direction -0.707107 -6.34904e-011 0.707107   
     length 0.738586   
     axis -90 -45 -2.85299e-015   XYZ
    dof rx rz
    limits (-45.0 45.0)
           (-45.0 45.0)
  end
:hierarchy
  begin
    root lhipjoint rhipjoint lowerback
    lhipjoint lfemur
    lfemur ltibia
    ltibia lfoot
    lfoot ltoes
    rhipjoint rfemur
    rfemur rtibia
    rtibia rfoot
    rfoot rtoes
    lowerback upperback
    upperback thorax
    thorax lowerneck lclavicle rclavicle
    lowerneck upperneck
    upperneck head
    lclavicle lhumerus
    lhumerus lradius
    lradius lwrist
    lwrist lhand lthumb
    lhand lfingers
    rclavicle rhumerus
    rhumerus rradius
    rradius rwrist
    rwrist rhand rthumb
    rhand rfingers
  end

#!OML:ASF E:\Mandelcareful walks\Project 1\Capture day 1\Session 1\Subject1.ASF
:FULLY-SPECIFIED
:DEGREES
339
root -3.4179 11.5566 0.766583 49.3692 65.6144 26.3251
lowerback 42.3449 0.573785 3.93638
upperback 10.7868 3.77554 2.95666
thorax -8.00106 2.11947 -0.477985
lowerneck -29.0143 -12.4628 -7.78381
upperneck 17.6094 -15.2797 5.55214
head 11.4304 -6.76104 0.432605
rclavicle -3.18055e-014 -1.51076e-014
rhumerus 64.6038 -24.6656 -86.4436
rradius 26.0704
rwrist -31.1175
rhand -18.0611 -40.6556
rfingers 7.12502
rthumb 8.21137 -70.4761
lclavicle -3.18055e-014 -1.51076e-014
lhumerus -18.3361 -1.87356 69.0146
lradius 40.6839
lwrist 23.0359
lhand -30.1095 -22.229
lfingers 7.12502
lthumb -3.42321 7.72324
rfemur -95.5268 -17.3058 11.3632
rtibia 111.272
rfoot -31.6773 4.36101
rtoes 1.13407
lfemur -79.9429 39.9406 -19.9372
ltibia 94.4467
lfoot -21.7207 1.95443
ltoes -22.2436
340
root -3.41658 11.5591 0.748328 49.6739 65.9314 26.6664
lowerback 42.5544 0.77614 3.69246
upperback 10.6237 3.97061 3.24823
thorax -8.28169 2.18924 -0.134368
lowerneck -28.7868 -12.3544 -7.98467
upperneck 17.6343 -14.9796 5.2333
head 11.3675 -6.68716 0.418307
rclavicle 8.5875e-014 2.94201e-014
rhumerus 64.3377 -24.5784 -85.9827
rradius 26.1037
rwrist -31.5546
rhand -18.4684 -41.0395
rfingers 7.12502
rthumb 7.81822 -70.8749
lclavicle 8.5875e-014 2.94201e-014
lhumerus -18.5721 -2.17279 69.5724
lradius 40.7934
lwrist 22.7673
lhand -30.2991 -22.7762
lfingers 7.12502
lthumb -3.60629 7.17304
rfemur -95.4129 -17.6619 11.3705
rtibia 111.231
rfoot -31.7055 4.24799
rtoes 0.38831
lfemur -80.131 39.6899 -20.0195
ltibia 94.5315
lfoot -21.7412 1.93609
ltoes -22.464
341
root -3.4163 11.5684 0.729886 49.7042 66.1345 26.8855
lowerback 42.8706 0.759006 3.6105
upperback 10.5935 3.9297 3.13445
thorax -8.40368 2.17272 -0.204832
lowerneck -28.928 -12.1527 -7.92692
upperneck 17.8443 -14.6753 5.04259
head 11.4293 -6.56183 0.392641
rclavicle 6.36111e-015 6.36111e-015
rhumerus 64.2903 -24.2627 -86.2344
rradius 26.1875
rwrist -31.8517
rhand -18.7393 -41.0883
rfingers 7.12502
rthumb 7.55679 -70.9334
lclavicle 6.36111e-015 6.36111e-015
lhumerus -18.5544 -2.30833 69.5292
lradius 40.8361
lwrist 22.7765
lhand -29.7887 -22.0013
lfingers 7.12502
lthumb -3.11343 7.95571
rfemur -95.0449 -17.816 11.2413
rtibia 111.129
rfoot -31.7453 4.02666
rtoes -0.853402
lfemur -80.0319 39.579 -20.048
ltibia 94.6117
lfoot -21.9205 1.94843
ltoes -23.2574
342
root -3.41788 11.5589 0.701054 50.1236 66.3674 27.1134
lowerback 42.6779 0.79574 3.4807
upperback 10.566 3.89917 3.06933
thorax -8.38273 2.15973 -0.192797
lowerneck -29.4362 -11.9364 -7.70786
upperneck 18.4006 -14.3182 4.52992
head 11.6404 -6.42691 0.214555
rclavicle 0 -7.15625e-015
rhumerus 64.2903 -23.808 -86.444
rradius 26.2396
rwrist -32.2305
rhand -19.2573 -41.029
rfingers 7.12502
rthumb 7.05679 -70.8913
lclavicle 0 -7.15625e-015
lhumerus -18.4703 -2.23882 69.5461
lradius 40.799
lwrist 22.8604
lhand -29.3061 -21.2562
lfingers 7.12502
lthumb -2.64737 8.70714
rfemur -95.3146 -18.069 11.2045
rtibia 111.145
rfoot -31.6042 3.9484
rtoes -1.38909
lfemur -80.7014 39.3595 -20.3989
ltibia 94.8502
lfoot -22.0443 2.20559
ltoes -24.3254
343
root -3.41886 11.5418 0.670404 50.5292 66.6089 27.2714
lowerback 42.4084 0.893761 3.29928
upperback 10.5569 3.9218 3.04979
thorax -8.3247 2.17054 -0.125569
lowerneck -29.3793 -11.6318 -7.65561
upperneck 18.1694 -13.86 4.34122
head 11.4947 -6.2515 0.241264
rclavicle 3.18055e-015 7.15625e-014
rhumerus 64.1364 -23.2162 -86.2629
rradius 26.4436
rwrist -32.879
rhand -19.9 -41.5
rfingers 7.12502
rthumb 6.43632 -71.3822
lclavicle 3.18055e-015 7.15625e-014
lhumerus -18.4881 -2.16767 69.6034
lradius 40.9156
lwrist 22.9488
lhand -29.2417 -21.2212
lfingers 7.12502
lthumb -2.58513 8.74291
rfemur -95.6988 -18.2659 11.1722
rtibia 111.237
rfoot -31.4895 3.8302
rtoes -1.79355
lfemur -81.5016 39.1353 -20.761
ltibia 95.1595
lfoot -22.127 2.52721
ltoes -25.0978
344
root -3.41802 11.5313 0.641392 50.5125 66.9043 27.181
lowerback 42.2448 0.968052 3.29955
upperback 10.6363 3.99743 2.99161
thorax -8.18233 2.21303 -0.212519
lowerneck -29.3272 -11.4789 -7.77985
upperneck 17.9504 -13.5962 4.36637
head 11.3988 -6.1449 0.328795
rclavicle 6.67916e-014 2.94201e-014
rhumerus 63.9674 -22.695 -85.9945
rradius 26.7538
rwrist -33.566
rhand -20.0436 -41.5783
rfingers 7.12502
rthumb 6.29773 -71.4647
lclavicle 6.67916e-014 2.94201e-014
lhumerus -18.4041 -2.21609 69.6093
lradius 41.0604
lwrist 23.0177
lhand -29.265 -21.1042
lfingers 7.12502
lthumb -2.60767 8.85964
rfemur -95.7532 -18.3135 11.1549
rtibia 111.306
rfoot -31.5043 3.57829
rtoes -2.67117
lfemur -81.9609 39.0106 -20.8471
ltibia 95.4571
lfoot -22.1934 2.70542
ltoes -25.591
345
root -3.41723 11.5223 0.612645 50.3553 67.2284 26.9835
lowerback 42.0299 1.0995 3.4235
upperback 10.7745 4.18838 2.9266
thorax -7.94821 2.31312 -0.412535
lowerneck -29.2724 -11.5332 -8.00415
upperneck 17.8685 -13.6103 4.4918
head 11.3867 -6.15268 0.406962
rclavicle -9.54166e-015 1.59028e-014
rhumerus 63.3988 -22.3092 -85.0377
rradius 27.4686
rwrist -34.9405
rhand -19.9704 -41.2367
rfingers 7.12502
rthumb 6.36842 -71.1209
lclavicle -9.54166e-015 1.59028e-014
lhumerus -18.0855 -2.40076 69.6706
lradius 41.1545
lwrist 23.0959
lhand -29.2662 -20.9885
lfingers 7.12502
lthumb -2.60882 8.97532
rfemur -95.7137 -18.3172 11.1624
rtibia 111.359
rfoot -31.5473 3.38974
rtoes -3.05608
lfemur -82.3427 38.9135 -20.8307
ltibia 95.7523
lfoot -22.2183 2.85704
ltoes -25.9553
346
root -3.41756 11.5101 0.581942 50.5265 67.4209 27.0662
lowerback 41.8259 1.32796 3.28744
upperback 10.8434 4.38785 2.86068
thorax -7.81177 2.41102 -0.486439
lowerneck -29.37 -11.5587 -8.0146
upperneck 17.9757 -13.6155 4.41246
head 11.4378 -6.16149 0.372151
rclavicle -3.18055e-014 7.95139e-015
rhumerus 63.0191 -21.9247 -84.4536
rradius 27.969
rwrist -35.8085
rhand -20.0063 -40.9361
rfingers 7.12502
rthumb 6.33372 -70.8214
lclavicle -3.18055e-014 7.95139e-015
lhumerus -17.819 -2.53774 69.753
lradius 41.1886
lwrist 23.1144
lhand -29.1719 -21.0182
lfingers 7.12502
lthumb -2.5177 8.94665
rfemur -95.7766 -18.4038 11.0397
rtibia 111.417
rfoot -31.5573 3.2109
rtoes -2.90338
lfemur -82.7812 38.7577 -21.0293
ltibia 96.0487
lfoot -22.314 3.00085
ltoes -25.8318
347
root -3.41505 11.4913 0.545464 50.9628 67.67 27.3589
lowerback 41.6018 1.48823 3.11969
upperback 10.8379 4.49045 2.7845
thorax -7.75493 2.46029 -0.517562
lowerneck -29.3883 -11.4456 -7.84622
upperneck 18.0078 -13.4805 4.22879
head 11.417 -6.11303 0.308037
rclavicle -5.725e-014 -3.57812e-014
rhumerus 63.605 -21.6953 -85.5016
rradius 27.5288
rwrist -34.899
rhand -19.8538 -40.445
rfingers 7.12502
rthumb 6.48095 -70.3259
lclavicle -5.725e-014 -3.57812e-014
lhumerus -17.6903 -2.61706 69.7417
lradius 41.2119
lwrist 23.1993
lhand -29.055 -21.2689
lfingers 7.12502
lthumb -2.40482 8.69726
rfemur -95.9049 -18.6725 10.9447
rtibia 111.456
rfoot -31.534 2.85965
rtoes -2.97736
lfemur -83.3507 38.5019 -21.3107
ltibia 96.3749
lfoot -22.4835 3.01233
ltoes -25.4154
348
root -3.40846 11.4621 0.506532 51.4138 68.0068 27.6886
lowerback 41.4309 1.62463 3.08844
upperback 10.7973 4.62282 2.71492
thorax -7.74336 2.52166 -0.625392
lowerneck -29.2946 -11.3633 -7.71288
upperneck 18.0201 -13.381 4.04334
head 11.3748 -6.08607 0.246143
rclavicle 0 -1.03368e-014
rhumerus 63.7718 -21.4923 -85.8932
rradius 27.2659
rwrist -34.5138
rhand -19.6093 -40.1455
rfingers 7.12502
rthumb 6.71696 -70.0189
lclavicle 0 -1.03368e-014
lhumerus -17.6594 -2.81616 69.7484
lradius 41.4411
lwrist 23.3876
lhand -28.9084 -21.0809
lfingers 7.12502
lthumb -2.26328 8.88688
rfemur -96.0939 -19.0298 10.8873
rtibia 111.565
rfoot -31.5256 2.53955
rtoes -3.5195
lfemur -83.9528 38.2179 -21.4838
ltibia 96.7535
lfoot -22.6374 2.93886
ltoes -25.2158
349
root -3.413 11.4618 0.479434 51.6742 68.1808 27.8633
lowerback 41.421 1.92057 2.88968
upperback 10.7168 4.88406 2.64197
thorax -7.83413 2.63626 -0.709633
lowerneck -29.2956 -11.3583 -7.68649
upperneck 18.1879 -13.3495 3.88627
head 11.4219 -6.08715 0.187878
rclavicle -6.36111e-015 3.26007e-014
rhumerus 63.3678 -21.2114 -85.2976
rradius 27.3725
rwrist -35.0862
rhand -19.4216 -40.3306
rfingers 7.12502
rthumb 6.8982 -70.1982
lclavicle -6.36111e-015 3.26007e-014
lhumerus -17.6582 -3.13746 69.7376
lradius 41.7513
lwrist 23.4809
lhand -28.6607 -20.4254
lfingers 7.12502
lthumb -2.024 9.54473
rfemur -96.1384 -19.0127 10.7526
rtibia 111.535
rfoot -31.5042 2.12077
rtoes -4.35124
lfemur -84.3387 38.1755 -21.7837
ltibia 96.8833
lfoot -22.6603 2.84251
ltoes -25.3299
350
root -3.41599 11.4588 0.449711 52.0009 68.3392 28.093
lowerback 41.3561 2.19244 2.65542
upperback 10.664 5.10117 2.56668
thorax -7.88077 2.73297 -0.757808
lowerneck -29.4196 -11.3281 -7.68713
upperneck 18.4339 -13.2633 3.72458
head 11.5183 -6.06174 0.135271
rclavicle 3.81667e-014 2.46493e-014
rhumerus 63.1016 -20.839 -84.8772
rradius 27.4107
rwrist -35.4191
rhand -19.2053 -40.5738
rfingers 7.12502
rthumb 7.10695 -70.4345
lclavicle 3.81667e-014 2.46493e-014
lhumerus -17.5479 -3.26711 69.7225
lradius 41.7841
lwrist 23.2716
lhand -28.6444 -20.5653
lfingers 7.12502
lthumb -2.00825 9.40504
rfemur -96.2641 -19.0817 10.628
rtibia 111.557
rfoot -31.4145 1.82363
rtoes -5.19654
lfemur -84.8053 38.1078 -22.1515
ltibia 97.0322
lfoot -22.6105 2.90468
ltoes -25.7973
351
root -3.41292 11.4515 0.41461 52.9335 68.6404 28.9679
lowerback 41.1254 2.24562 2.58271
upperback 10.6996 5.11677 2.43805
thorax -7.76391 2.74977 -0.853693
lowerneck -29.5818 -11.2497 -7.6785
upperneck 18.6261 -13.1095 3.56743
head 11.5973 -6.00557 0.0962323
rclavicle -8.90555e-014 -1.11319e-014
rhumerus 62.8613 -20.3741 -84.5022
rradius 27.5194
rwrist -35.6041
rhand -18.9501 -40.5579
rfingers 7.12502
rthumb 7.35335 -70.4101
lclavicle -8.90555e-014 -1.11319e-014
lhumerus -17.3018 -3.15136 69.6864
lradius 41.7081
lwrist 22.9774
lhand -28.6289 -20.8434
lfingers 7.12502
lthumb -1.99332 9.12704
rfemur -96.3351 -19.6177 10.4209
rtibia 111.658
rfoot -31.4875 1.92691
rtoes -5.67752
lfemur -85.3661 37.6952 -22.5871
ltibia 97.2564
lfoot -22.5888 3.07475
ltoes -26.1209
